<svg xmlns="http://www.w3.org/2000/svg">
  <defs>
    <symbol id="email" viewBox="0 0 512 512">
      <path
        d="M64 112c-8.8 0-16 7.2-16 16v22.1L220.5 291.7c20.7 17 50.4 17 71.1 0L464 150.1V128c0-8.8-7.2-16-16-16H64zM48 212.2V384c0 8.8 7.2 16 16 16H448c8.8 0 16-7.2 16-16V212.2L322 328.8c-38.4 31.5-93.7 31.5-132 0L48 212.2zM0 128C0 92.7 28.7 64 64 64H448c35.3 0 64 28.7 64 64V384c0 35.3-28.7 64-64 64H64c-35.3 0-64-28.7-64-64V128z" />
    </symbol>
    <symbol id="github" viewBox="0 0 496 512">
      <path
        d="M165.9 397.4c0 2-2.3 3.6-5.2 3.6-3.3 .3-5.6-1.3-5.6-3.6 0-2 2.3-3.6 5.2-3.6 3-.3 5.6 1.3 5.6 3.6zm-31.1-4.5c-.7 2 1.3 4.3 4.3 4.9 2.6 1 5.6 0 6.2-2s-1.3-4.3-4.3-5.2c-2.6-.7-5.5 .3-6.2 2.3zm44.2-1.7c-2.9 .7-4.9 2.6-4.6 4.9 .3 2 2.9 3.3 5.9 2.6 2.9-.7 4.9-2.6 4.6-4.6-.3-1.9-3-3.2-5.9-2.9zM244.8 8C106.1 8 0 113.3 0 252c0 110.9 69.8 205.8 169.5 239.2 12.8 2.3 17.3-5.6 17.3-12.1 0-6.2-.3-40.4-.3-61.4 0 0-70 15-84.7-29.8 0 0-11.4-29.1-27.8-36.6 0 0-22.9-15.7 1.6-15.4 0 0 24.9 2 38.6 25.8 21.9 38.6 58.6 27.5 72.9 20.9 2.3-16 8.8-27.1 16-33.7-55.9-6.2-112.3-14.3-112.3-110.5 0-27.5 7.6-41.3 23.6-58.9-2.6-6.5-11.1-33.3 2.6-67.9 20.9-6.5 69 27 69 27 20-5.6 41.5-8.5 62.8-8.5s42.8 2.9 62.8 8.5c0 0 48.1-33.6 69-27 13.7 34.7 5.2 61.4 2.6 67.9 16 17.7 25.8 31.5 25.8 58.9 0 96.5-58.9 104.2-114.8 110.5 9.2 7.9 17 22.9 17 46.4 0 33.7-.3 75.4-.3 83.6 0 6.5 4.6 14.4 17.3 12.1C428.2 457.8 496 362.9 496 252 496 113.3 383.5 8 244.8 8zM97.2 352.9c-1.3 1-1 3.3 .7 5.2 1.6 1.6 3.9 2.3 5.2 1 1.3-1 1-3.3-.7-5.2-1.6-1.6-3.9-2.3-5.2-1zm-10.8-8.1c-.7 1.3 .3 2.9 2.3 3.9 1.6 1 3.6 .7 4.3-.7 .7-1.3-.3-2.9-2.3-3.9-2-.6-3.6-.3-4.3 .7zm32.4 35.6c-1.6 1.3-1 4.3 1.3 6.2 2.3 2.3 5.2 2.6 6.5 1 1.3-1.3 .7-4.3-1.3-6.2-2.2-2.3-5.2-2.6-6.5-1zm-11.4-14.7c-1.6 1-1.6 3.6 0 5.9 1.6 2.3 4.3 3.3 5.6 2.3 1.6-1.3 1.6-3.9 0-6.2-1.4-2.3-4-3.3-5.6-2z" />
    </symbol>
    <symbol id="linkedin" viewBox="0 0 448 512">
      <path
        d="M416 32H31.9C14.3 32 0 46.5 0 64.3v383.4C0 465.5 14.3 480 31.9 480H416c17.6 0 32-14.5 32-32.3V64.3c0-17.8-14.4-32.3-32-32.3zM135.4 416H69V202.2h66.5V416zm-33.2-243c-21.3 0-38.5-17.3-38.5-38.5S80.9 96 102.2 96c21.2 0 38.5 17.3 38.5 38.5 0 21.3-17.2 38.5-38.5 38.5zm282.1 243h-66.4V312c0-24.8-.5-56.7-34.5-56.7-34.6 0-39.9 27-39.9 54.9V416h-66.4V202.2h63.7v29.2h.9c8.9-16.8 30.6-34.5 62.9-34.5 67.2 0 79.7 44.3 79.7 101.9V416z" />
    </symbol>
    <symbol id="instagram" viewBox="0 0 512 512">
      <path 
        d="M256,49.471c67.266,0,75.233.257,101.8,1.469,24.562,1.121,37.9,5.224,46.778,8.674a78.052,78.052,0,0,1,28.966,18.845,78.052,78.052,0,0,1,18.845,28.966c3.45,8.877,7.554,22.216,8.674,46.778,1.212,26.565,1.469,34.532,1.469,101.8s-0.257,75.233-1.469,101.8c-1.121,24.562-5.225,37.9-8.674,46.778a83.427,83.427,0,0,1-47.811,47.811c-8.877,3.45-22.216,7.554-46.778,8.674-26.56,1.212-34.527,1.469-101.8,1.469s-75.237-.257-101.8-1.469c-24.562-1.121-37.9-5.225-46.778-8.674a78.051,78.051,0,0,1-28.966-18.845,78.053,78.053,0,0,1-18.845-28.966c-3.45-8.877-7.554-22.216-8.674-46.778-1.212-26.564-1.469-34.532-1.469-101.8s0.257-75.233,1.469-101.8c1.121-24.562,5.224-37.9,8.674-46.778A78.052,78.052,0,0,1,78.458,78.458a78.053,78.053,0,0,1,28.966-18.845c8.877-3.45,22.216-7.554,46.778-8.674,26.565-1.212,34.532-1.469,101.8-1.469m0-45.391c-68.418,0-77,.29-103.866,1.516-26.815,1.224-45.127,5.482-61.151,11.71a123.488,123.488,0,0,0-44.62,29.057A123.488,123.488,0,0,0,17.3,90.982C11.077,107.007,6.819,125.319,5.6,152.134,4.369,179,4.079,187.582,4.079,256S4.369,333,5.6,359.866c1.224,26.815,5.482,45.127,11.71,61.151a123.489,123.489,0,0,0,29.057,44.62,123.486,123.486,0,0,0,44.62,29.057c16.025,6.228,34.337,10.486,61.151,11.71,26.87,1.226,35.449,1.516,103.866,1.516s77-.29,103.866-1.516c26.815-1.224,45.127-5.482,61.151-11.71a128.817,128.817,0,0,0,73.677-73.677c6.228-16.025,10.486-34.337,11.71-61.151,1.226-26.87,1.516-35.449,1.516-103.866s-0.29-77-1.516-103.866c-1.224-26.815-5.482-45.127-11.71-61.151a123.486,123.486,0,0,0-29.057-44.62A123.487,123.487,0,0,0,421.018,17.3C404.993,11.077,386.681,6.819,359.866,5.6,333,4.369,324.418,4.079,256,4.079h0Z" />
      <path 
        d="M256,126.635A129.365,129.365,0,1,0,385.365,256,129.365,129.365,0,0,0,256,126.635Zm0,213.338A83.973,83.973,0,1,1,339.974,256,83.974,83.974,0,0,1,256,339.973Z" />
      <circle  cx="390.476" cy="121.524" r="30.23" />
    </symbol>
      <symbol id="facebook" viewBox="0 0 144.083 144"><path d="M72.041,14.165c-31.94,0-57.833,25.894-57.833,57.834c0,31.939,25.893,57.836,57.833,57.836s57.835-25.896,57.835-57.836  C129.875,40.059,103.981,14.165,72.041,14.165z M91.792,51.16c0,0.552-0.447,1-1,1H76.713v7.567h14.078c0.553,0,1,0.448,1,1v14.077  c0,0.553-0.447,1-1,1H77.713v30.892c0,0.553-0.447,1-1,1H63.408c-0.553,0-1-0.447-1-1V75.805h-9.117c-0.553,0-1-0.447-1-1V60.728  c0-0.552,0.447-1,1-1h9.117V54.02c0-0.082,0.01-0.161,0.028-0.237c0.008-8.131,1.747-17.433,15.068-17.475  c0.029-0.002,0.06-0.004,0.09-0.004h13.197c0.553,0,1,0.448,1,1V51.16z"/>
    </symbol>
    <symbol viewBox="0 0 127.14 96.36"><path fill="#fff" d="M107.7,8.07A105.15,105.15,0,0,0,81.47,0a72.06,72.06,0,0,0-3.36,6.83A97.68,97.68,0,0,0,49,6.83,72.37,72.37,0,0,0,45.64,0,105.89,105.89,0,0,0,19.39,8.09C2.79,32.65-1.71,56.6.54,80.21h0A105.73,105.73,0,0,0,32.71,96.36,77.7,77.7,0,0,0,39.6,85.25a68.42,68.42,0,0,1-10.85-5.18c.91-.66,1.8-1.34,2.66-2a75.57,75.57,0,0,0,64.32,0c.87.71,1.76,1.39,2.66,2a68.68,68.68,0,0,1-10.87,5.19,77,77,0,0,0,6.89,11.1A105.25,105.25,0,0,0,126.6,80.22h0C129.24,52.84,122.09,29.11,107.7,8.07ZM42.45,65.69C36.18,65.69,31,60,31,53s5-12.74,11.43-12.74S54,46,53.89,53,48.84,65.69,42.45,65.69Zm42.24,0C78.41,65.69,73.25,60,73.25,53s5-12.74,11.44-12.74S96.23,46,96.12,53,91.08,65.69,84.69,65.69Z"/>
    <symbol id="twitter-x" viewBox="0 0 512 512">
      <path
        d="M389.2 48h70.6L305.6 224.2 487 464H345L233.7 318.6 106.5 464H35.8L200.7 275.5 26.8 48H172.4L272.9 180.9 389.2 48zM364.4 421.8h39.1L151.1 88h-42L364.4 421.8z" />
    </symbol>
  </defs>
</svg>